<?xml version="1.0" encoding="utf-8"?>
<!-- Generator: Adobe Illustrator 26.0.3, SVG Export Plug-In . SVG Version: 6.00 Build 0)  -->
<svg version="1.0" id="レイヤー_1" xmlns="http://www.w3.org/2000/svg" xmlns:xlink="http://www.w3.org/1999/xlink" x="0px"
	 y="0px" viewBox="0 0 841.89 595.28" style="enable-background:new 0 0 841.89 595.28;" xml:space="preserve">
<style type="text/css">
	.st0{fill:#C9A8CE;}
	.st1{fill:none;}
	.st2{fill:#C9A8CE;stroke:#000000;stroke-width:16;stroke-miterlimit:10;}
	.st3{fill:#C9A8CE;stroke:#000000;stroke-width:8;stroke-miterlimit:10;}
</style>
<rect class="st0" width="841.89" height="352.69"/>
<g>
	<rect x="222.38" y="352.69" class="st1" width="588.85" height="204.47"/>
	<path d="M330.29,514.74h-15.17L253.1,395.89c0.58,9.02,1.54,21.7,1.54,45.31v73.54h-10.94V383.22h14.78l62.4,118.85
		c-0.38-5.57-1.54-21.89-1.54-38.98v-79.87h10.94V514.74z"/>
	<path d="M440.68,395.7l-6.72,7.3c-9.79-8.45-18.62-12.1-30.72-12.1c-16.13,0-27.26,8.45-27.26,22.27c0,13.44,7.1,19.58,30.72,26.69
		c23.62,7.3,38.02,15.74,38.02,38.98c0,22.46-17.09,38.02-43.58,38.02c-18.05,0-31.3-6.34-42.05-16.51l6.72-7.3
		c9.6,8.45,19.78,14.02,35.14,14.02c18.43,0,32.06-10.18,32.06-27.84c0-15.94-7.87-22.46-31.3-29.76
		c-26.11-8.06-37.44-17.09-37.44-36.1c0-18.62,15.55-32.26,38.59-32.26C419.95,381.11,430.31,386.48,440.68,395.7z"/>
	<path d="M540.71,392.82h-52.8v51.26h45.5v9.6h-45.5v61.06h-11.52V383.22h65.67L540.71,392.82z"/>
	<path d="M680.68,515.31h-33.02l-20.16-105.79l-20.74,105.79h-32.06l-24-132.67h25.15l16.9,112.51l21.7-112.51h26.88l21.31,112.51
		l18.43-112.51h24L680.68,515.31z"/>
	<path d="M811.24,419.12c-7.68,2.69-17.28,3.46-29.38,3.46c12.29,5.57,18.43,13.44,18.43,26.11c0,19.78-15.36,34.18-40.9,34.18
		c-4.42,0-8.26-0.38-12.1-1.54c-2.5,1.73-4.22,4.42-4.22,7.49c0,3.65,2.11,7.1,12.29,7.1h15.55c22.46,0,37.06,12.1,37.06,28.8
		c0,20.35-17.47,32.45-50.69,32.45c-36.1,0-46.27-11.52-46.27-31.87h22.08c0,10.18,4.42,14.59,24.58,14.59
		c19.78,0,25.54-5.38,25.54-13.44c0-7.49-5.95-12.1-17.28-12.1h-15.36c-20.35,0-28.99-9.02-28.99-19.58c0-7.1,4.42-14.21,11.9-18.82
		c-12.48-6.53-17.86-15.55-17.86-28.61c0-22.08,17.47-36.48,42.05-36.48c24,0.58,35.14-4.8,47.42-11.33L811.24,419.12z
		 M740.39,446.96c0,12.29,6.72,19.97,18.05,19.97c11.71,0,18.05-7.29,18.05-20.16c0-12.86-6.14-19.2-18.43-19.2
		C746.92,427.57,740.39,435.25,740.39,446.96z"/>
</g>
<line class="st2" x1="49.31" y1="557.17" x2="697.31" y2="557.17"/>
<circle cx="275.37" cy="180.44" r="34.75"/>
<circle cx="516.81" cy="292.69" r="34.75"/>
<circle cx="447.31" cy="61.94" r="34.75"/>
<polyline class="st3" points="447.31,61.94 275.37,180.44 516.81,292.69 "/>
<g>
</g>
<g>
</g>
<g>
</g>
<g>
</g>
<g>
</g>
<g>
</g>
</svg>
